<?xml version="1.0" encoding="utf-8"?>
<!-- Generator: Adobe Illustrator 23.0.3, SVG Export Plug-In . SVG Version: 6.00 Build 0)  -->
<svg version="1.1" id="Layer_1" xmlns="http://www.w3.org/2000/svg" xmlns:xlink="http://www.w3.org/1999/xlink" x="0px" y="0px"
	 viewBox="0 0 500 500" style="enable-background:new 0 0 500 500;" xml:space="preserve">
<style type="text/css">
	.st0{clip-path:url(#SVGID_2_);fill:#CAA1A6;}
	.st1{clip-path:url(#SVGID_2_);fill:#FFFFFF;}
</style>
<g>
	<defs>
		<rect id="SVGID_1_" x="138.22" y="126.54" width="223.99" height="247.29"/>
	</defs>
	<clipPath id="SVGID_2_">
		<use xlink:href="#SVGID_1_"  style="overflow:visible;"/>
	</clipPath>
	<path class="st0" d="M290.92,247.69c0.3,1.27,0.47,3.5-0.45,6.96c-1.07,4.05-4.57,7.69-6.51,9.46c-0.81-2.5-2.04-7.39-0.97-11.44
		c1.39-5.24,3.83-7.62,5.51-7.62c0.16,0,0.33,0.02,0.49,0.07C290.22,245.44,290.73,246.86,290.92,247.69 M314.82,232.49
		c-1.84,0.83-4.17,1.24-6.91,1.24c-1.78,0-3.4-0.18-4.54-0.35c1.44-2.2,4.47-6.24,8.29-7.95c2.32-1.04,4.48-1.59,6.25-1.59
		c1.02,0,2.82,0.2,3.4,1.5C322.09,227.1,320.12,230.12,314.82,232.49 M320.69,249.15c-0.48,1.21-1.61,3.15-4.34,5.47
		c-3.2,2.72-8.14,3.72-10.74,4.07c0.76-2.51,2.54-7.24,5.73-9.96c2.65-2.25,5.3-3.55,7.27-3.55c0.87,0,1.53,0.25,1.97,0.76
		C321.39,246.9,321,248.36,320.69,249.15 M333.19,208.19L333.19,208.19c-0.06-1.55-0.16-3.11-0.32-4.68c0-0.03-0.01-0.06-0.02-0.09
		c-0.01-0.04-0.01-0.08-0.02-0.11c-0.01-0.05-0.03-0.09-0.05-0.13c-0.01-0.03-0.02-0.06-0.04-0.09c-0.03-0.05-0.05-0.1-0.08-0.14
		c-0.01-0.02-0.02-0.04-0.04-0.06c-0.04-0.05-0.08-0.1-0.13-0.14c-0.01-0.01-0.02-0.02-0.03-0.03c-0.05-0.05-0.11-0.09-0.17-0.13
		c-0.01,0-0.01-0.01-0.01-0.01c-0.07-0.04-0.13-0.07-0.21-0.1c0,0-0.01-0.01-0.01-0.01c-0.07-0.03-0.13-0.05-0.21-0.06
		c-0.01,0-0.03-0.01-0.04-0.01c-0.06-0.01-0.11-0.01-0.17-0.01c-0.02,0-0.04-0.01-0.07-0.01c-0.37,0.01-9.2,0.37-19.03,5.63
		c-8.92,4.77-20.27,14.63-24.24,34.55c-3.26,0.14-6.2,3.73-7.72,9.46c-1.72,6.5,1.52,14.35,1.66,14.68
		c0.15,0.35,0.46,0.62,0.83,0.72c0.1,0.03,0.21,0.04,0.32,0.04c0.27,0,0.54-0.09,0.76-0.26c0.28-0.22,6.99-5.43,8.72-11.93
		c0.83-3.13,0.99-5.96,0.47-8.17c-0.44-1.85-1.36-3.21-2.62-3.94c3.01-15.27,10.71-26.34,22.91-32.9c7.32-3.94,14.2-5.01,16.87-5.29
		c0.21,2.42,0.28,4.81,0.23,7.16c-0.29,3.98-1.75,9.93-7.68,11.32c-1.03-1.34-2.85-2.09-5.14-2.09c-2.12,0-4.63,0.62-7.26,1.8
		c-6.14,2.75-10.2,10.21-10.37,10.52c-0.18,0.34-0.2,0.74-0.04,1.1c0.16,0.35,0.47,0.61,0.84,0.7c0.12,0.03,3.12,0.74,6.83,0.74
		c3.1,0,5.76-0.49,7.93-1.46c6.02-2.7,8.31-6.21,8.11-8.97c2.47-0.65,4.33-1.96,5.72-3.62c-1.46,7.48-4.38,14.5-8.74,20.99
		c-0.68-0.31-1.45-0.47-2.31-0.47c-2.59,0-5.75,1.47-8.88,4.14c-4.79,4.08-6.68,11.6-6.96,12.84c-0.05,0.13-0.07,0.27-0.07,0.42
		c0,0.69,0.55,1.24,1.24,1.24h0.01c0.02,0,0.04,0,0.06,0c0.36-0.02,8.84-0.48,13.96-4.84c2.47-2.1,4.21-4.33,5.04-6.45
		c0.79-2.02,0.71-3.86-0.19-5.26c6.58-9.69,10.06-20.51,10.4-32.27C333.35,210.93,333.32,209.43,333.19,208.19"/>
	<path class="st0" d="M217.43,166.63c-1.39,5.24-3.83,7.62-5.51,7.62c-0.16,0-0.33-0.02-0.49-0.06c-1.22-0.32-1.73-1.75-1.92-2.58
		c-0.3-1.27-0.47-3.5,0.45-6.96c1.07-4.05,4.57-7.69,6.51-9.46C217.27,157.68,218.51,162.58,217.43,166.63 M185.61,186.8
		c1.84-0.83,4.17-1.24,6.91-1.24c1.78,0,3.4,0.18,4.54,0.35c-1.44,2.19-4.47,6.24-8.29,7.95c-2.32,1.04-4.48,1.59-6.25,1.59
		c-1.02,0-2.82-0.2-3.4-1.5C178.34,192.19,180.32,189.18,185.61,186.8 M179.74,170.15c0.48-1.21,1.61-3.14,4.34-5.47
		c3.2-2.72,8.14-3.72,10.74-4.07c-0.76,2.51-2.54,7.24-5.73,9.96c-2.65,2.25-5.3,3.55-7.27,3.55c-0.88,0-1.54-0.26-1.97-0.76
		C179.04,172.4,179.43,170.94,179.74,170.15 M218.18,152.59c-0.15-0.35-0.46-0.62-0.83-0.72c-0.37-0.1-0.77-0.02-1.08,0.22
		c-0.28,0.22-6.99,5.43-8.72,11.93c-0.83,3.13-0.99,5.96-0.47,8.17c0.44,1.85,1.35,3.21,2.61,3.94
		c-3.01,15.27-10.71,26.34-22.91,32.9c-7.32,3.94-14.2,5.02-16.87,5.3c-0.21-2.42-0.28-4.81-0.23-7.16
		c0.29-3.98,1.75-9.93,7.69-11.32c1.03,1.34,2.85,2.09,5.14,2.09c2.12,0,4.63-0.62,7.26-1.8c6.14-2.75,10.2-10.21,10.37-10.52
		c0.18-0.34,0.2-0.75,0.04-1.1c-0.16-0.35-0.47-0.61-0.85-0.7c-0.12-0.03-3.12-0.74-6.83-0.74c-3.09,0-5.76,0.49-7.93,1.46
		c-6.02,2.69-8.31,6.21-8.11,8.97c-2.47,0.65-4.33,1.96-5.72,3.62c1.46-7.48,4.38-14.5,8.74-20.99c0.68,0.31,1.45,0.47,2.31,0.47
		c2.59,0,5.74-1.47,8.88-4.14c5.12-4.36,6.92-12.66,7-13.01c0.08-0.38-0.02-0.77-0.27-1.06c-0.25-0.29-0.62-0.45-1.01-0.44
		c-0.36,0.02-8.84,0.48-13.96,4.84c-2.47,2.1-4.21,4.33-5.04,6.45c-0.79,2.02-0.71,3.86,0.19,5.26
		c-6.58,9.69-10.07,20.51-10.4,32.27c-0.14,1.6-0.11,3.1,0.02,4.34c0,0,0,0,0,0c0.06,1.55,0.16,3.11,0.32,4.68
		c0,0.03,0.01,0.06,0.02,0.1s0.01,0.07,0.02,0.1c0.01,0.05,0.03,0.09,0.04,0.13c0.01,0.03,0.02,0.06,0.04,0.09
		c0.02,0.04,0.04,0.08,0.07,0.12c0.02,0.03,0.03,0.05,0.05,0.08c0.03,0.04,0.06,0.07,0.09,0.1c0.02,0.03,0.04,0.05,0.07,0.07
		c0.03,0.03,0.07,0.06,0.1,0.08c0.03,0.02,0.05,0.04,0.08,0.06c0.04,0.02,0.08,0.04,0.12,0.06c0.03,0.01,0.06,0.03,0.09,0.04
		c0.05,0.02,0.09,0.03,0.14,0.04c0.03,0.01,0.06,0.02,0.08,0.02c0.08,0.02,0.16,0.03,0.24,0.03h0c0.01,0,0.03,0,0.04,0
		c0.37-0.01,9.2-0.37,19.03-5.63c8.92-4.77,20.27-14.63,24.24-34.55c3.25-0.14,6.2-3.73,7.72-9.46
		C221.56,160.77,218.31,152.92,218.18,152.59"/>
	<path class="st0" d="M214.14,205.68c-0.81,2.49-2.68,7.19-5.93,9.84c-0.58,0.47-1.16,0.9-1.74,1.29c-2.04,1.36-3.98,2.11-5.51,2.11
		c-0.92,0-1.61-0.27-2.04-0.8c-0.8-0.98-0.37-2.43-0.05-3.21c0.5-1.2,1.67-3.11,4.45-5.38c1.04-0.85,2.25-1.52,3.51-2.04
		C209.5,206.37,212.37,205.88,214.14,205.68 M176.44,237.86c-1.03-0.1-1.65-1.23-1.92-1.89c-0.43-1.05-0.88-2.95-0.57-6.07
		c0.36-3.54,2.74-7.06,4.19-8.92c1.05,2.11,2.68,6.04,2.33,9.57C179.97,235.51,178.04,238.03,176.44,237.86 M217.05,204.58
		c0.09-0.37-0.01-0.77-0.25-1.07c-0.24-0.3-0.62-0.46-1-0.46c-0.36,0.01-8.85,0.3-14.06,4.55c-2.51,2.05-4.3,4.25-5.17,6.35
		c-0.81,1.95-0.8,3.74,0.01,5.14c-2.86,2.44-7.75,8.1-10.36,15.99c-2.68,8.13-2.24,16.66,1.23,25.07
		c-4.67-5.98-7.6-12.45-9.23-20.14c2.45-1.03,4.24-4.41,4.72-9.21c0.6-5.96-3.36-12.4-3.53-12.67c-0.21-0.33-0.55-0.54-0.93-0.58
		c-0.38-0.04-0.76,0.1-1.03,0.38c-0.22,0.23-5.38,5.75-5.98,11.71c-0.29,2.87-0.03,5.39,0.74,7.27c0.76,1.84,2,3,3.51,3.33
		c2.71,12.96,9.13,22.98,20.76,32.39c0.23,0.19,0.51,0.28,0.78,0.28c0.36,0,0.72-0.16,0.97-0.46c0.43-0.53,0.35-1.31-0.18-1.75
		c-1.46-1.18-2.82-2.36-4.11-3.55c-0.03-0.12-0.08-0.24-0.15-0.35c-6.81-10.4-8.56-20.81-5.21-30.94c2.51-7.6,7.37-13.02,9.81-15.04
		c0.74,0.38,1.6,0.59,2.57,0.59c2.56,0,5.7-1.41,8.82-3.96C214.99,213.19,216.96,204.93,217.05,204.58"/>
	<path class="st0" d="M215.31,248.46c-0.36,1.35-2.16,2.16-4.81,2.16c-1.42,0-3.01-0.23-4.73-0.68c-4.05-1.07-7.69-4.57-9.46-6.51
		c1.8-0.58,4.85-1.38,7.93-1.38c1.29,0,2.47,0.14,3.52,0.42C213.36,243.94,215.8,246.6,215.31,248.46 M235.06,280.76
		c-0.25,0.11-0.52,0.17-0.81,0.17c-1.55,0-4.14-1.74-6.34-6.66c-1.71-3.83-1.28-8.86-0.89-11.45c2.2,1.43,6.24,4.47,7.95,8.29
		C237.35,276.41,236.82,279.98,235.06,280.76 M214.48,280.03c-0.38,0.32-0.87,0.49-1.46,0.49c-2,0-4.7-1.76-7.21-4.71
		c-2.73-3.2-3.72-8.15-4.07-10.74c2.51,0.76,7.24,2.54,9.96,5.73C215.46,275.21,215.94,278.79,214.48,280.03 M258.02,291.04
		c-0.01-0.37-0.37-9.2-5.63-19.03c-4.77-8.92-14.63-20.27-34.55-24.24c-0.14-2.81-2.95-6-9.46-7.72c-1.26-0.33-2.65-0.5-4.16-0.5
		c-5.31,0-10.31,2.07-10.52,2.16c-0.35,0.15-0.62,0.46-0.72,0.83s-0.02,0.77,0.22,1.08c0.22,0.28,5.43,6.99,11.93,8.72
		c1.93,0.51,3.73,0.77,5.36,0.77c3.25,0,5.68-1.07,6.76-2.92c15.27,3.01,26.33,10.71,32.9,22.91c3.94,7.32,5.01,14.2,5.29,16.87
		c-2.43,0.21-4.82,0.28-7.17,0.23c-3.98-0.3-9.93-1.76-11.31-7.69c2.27-1.77,3.14-6.03,0.29-12.4c-2.75-6.14-10.21-10.2-10.52-10.37
		c-0.34-0.18-0.74-0.2-1.1-0.04c-0.35,0.16-0.61,0.47-0.7,0.85c-0.08,0.35-2.02,8.62,0.72,14.76c2.28,5.09,5.5,8.13,8.61,8.13
		c0.12,0,0.24-0.01,0.36-0.02c0.65,2.47,1.96,4.33,3.62,5.72c-7.49-1.46-14.51-4.38-20.99-8.75c1.1-2.45,0.39-6.43-3.66-11.19
		c-4.36-5.12-12.66-6.92-13.01-7c-0.37-0.08-0.77,0.02-1.06,0.27c-0.29,0.25-0.45,0.62-0.44,1.01c0.02,0.36,0.48,8.84,4.84,13.96
		c3.02,3.55,6.34,5.59,9.11,5.59c0.97,0,1.86-0.26,2.61-0.74c9.67,6.57,20.48,10.05,32.21,10.39c0.75,0.07,1.48,0.1,2.16,0.1
		c0.8,0,1.55-0.04,2.22-0.11c0.01,0,0.01,0,0.02,0c1.54-0.06,3.09-0.16,4.66-0.32c0.03-0.01,0.06-0.02,0.09-0.02
		c0.04-0.01,0.07-0.01,0.11-0.02c0.05-0.01,0.09-0.03,0.13-0.05c0.03-0.01,0.07-0.03,0.1-0.04c0.04-0.02,0.08-0.04,0.12-0.07
		c0.03-0.02,0.06-0.04,0.09-0.06c0.04-0.03,0.07-0.06,0.1-0.09c0.03-0.03,0.05-0.05,0.08-0.08c0.03-0.03,0.05-0.07,0.08-0.1
		c0.02-0.03,0.04-0.06,0.06-0.09c0.02-0.04,0.04-0.07,0.06-0.11c0.02-0.04,0.03-0.07,0.04-0.1c0.02-0.04,0.03-0.08,0.04-0.13
		c0.01-0.04,0.02-0.07,0.02-0.11c0.01-0.04,0.01-0.09,0.01-0.13C258.02,291.1,258.02,291.07,258.02,291.04"/>
	<path class="st0" d="M258.66,261.5c-0.37,0.31-0.85,0.46-1.41,0.46c-2.01,0-4.69-1.82-7.18-4.86c-2.65-3.24-3.55-8.21-3.85-10.82
		c2.5,0.81,7.19,2.68,9.84,5.93C259.74,256.7,260.15,260.28,258.66,261.5 M278.4,283.98c-0.15,1.53-2.62,2.59-6,2.59
		c-0.63,0-1.29-0.03-1.97-0.1c-3.55-0.36-7.07-2.74-8.92-4.19c1.91-0.95,5.31-2.38,8.56-2.38c0.35,0,0.69,0.02,1.02,0.05
		C276.06,280.45,278.56,282.4,278.4,283.98 M312.99,262.18c-0.53-0.43-1.32-0.35-1.75,0.18c-1.18,1.46-2.36,2.82-3.55,4.11
		c-0.12,0.04-0.24,0.08-0.35,0.15c-10.4,6.8-20.81,8.56-30.94,5.21c-7.6-2.51-13.03-7.37-15.05-9.81c1.24-2.42,0.65-6.46-3.37-11.39
		c-4.26-5.21-12.52-7.18-12.86-7.26c-0.38-0.09-0.77,0.01-1.07,0.25c-0.3,0.25-0.47,0.61-0.46,1c0.01,0.36,0.3,8.85,4.55,14.06
		c3,3.67,6.31,5.77,9.1,5.77c0.87,0,1.68-0.21,2.38-0.61c2.44,2.86,8.1,7.75,15.99,10.36c3.52,1.16,7.1,1.74,10.73,1.74
		c4.76,0,9.57-1,14.34-2.97c-5.98,4.68-12.46,7.6-20.16,9.24c-0.94-2.19-3.85-4.19-9.2-4.73c-0.41-0.04-0.84-0.06-1.27-0.06
		c-5.57,0-11.17,3.44-11.41,3.59c-0.33,0.21-0.54,0.55-0.58,0.93c-0.04,0.38,0.1,0.76,0.38,1.03c0.23,0.22,5.75,5.38,11.72,5.98
		c0.76,0.08,1.5,0.11,2.21,0.11c4.66,0,7.81-1.66,8.39-4.37c12.96-2.71,22.98-9.13,32.38-20.76
		C313.61,263.39,313.53,262.61,312.99,262.18"/>
	<path class="st0" d="M304.13,175.88c-1.8,0.58-4.85,1.39-7.93,1.39c-1.29,0-2.47-0.14-3.52-0.42c-5.61-1.49-8.05-4.15-7.56-6
		c0.36-1.35,2.16-2.16,4.81-2.16c1.42,0,3.01,0.23,4.72,0.69C298.71,170.44,302.35,173.94,304.13,175.88 M265.37,138.53
		c0.25-0.11,0.52-0.17,0.81-0.17c1.55,0,4.14,1.75,6.34,6.66c1.71,3.82,1.28,8.86,0.89,11.45c-2.2-1.44-6.23-4.47-7.95-8.29
		C263.08,142.89,263.61,139.32,265.37,138.53 M285.95,139.27c0.38-0.32,0.87-0.49,1.46-0.49c2.01,0,4.7,1.76,7.21,4.71
		c2.73,3.2,3.72,8.15,4.07,10.74c-2.51-0.76-7.24-2.54-9.95-5.73C284.98,144.08,284.49,140.51,285.95,139.27 M307.23,175.68
		c-0.22-0.29-5.43-6.99-11.93-8.72c-1.92-0.51-3.73-0.77-5.36-0.77c-3.25,0-5.68,1.07-6.76,2.92c-15.27-3.01-26.33-10.71-32.9-22.91
		c-3.94-7.32-5.01-14.2-5.29-16.87c2.42-0.21,4.8-0.28,7.15-0.23c3.98,0.29,9.95,1.75,11.33,7.69c-2.27,1.77-3.14,6.03-0.29,12.4
		c2.75,6.13,10.21,10.2,10.52,10.37c0.18,0.1,0.39,0.15,0.59,0.15c0.17,0,0.34-0.04,0.51-0.11c0.35-0.16,0.61-0.47,0.7-0.84
		c0.08-0.35,2.02-8.62-0.72-14.76c-2.28-5.09-5.49-8.13-8.6-8.13c-0.12,0-0.25,0.01-0.37,0.02c-0.65-2.47-1.96-4.33-3.62-5.72
		c7.49,1.46,14.51,4.38,21,8.75c-1.1,2.45-0.39,6.43,3.66,11.19c4.36,5.12,12.66,6.92,13.01,7c0.09,0.02,0.17,0.03,0.26,0.03
		c0.29,0,0.58-0.1,0.81-0.3c0.3-0.25,0.46-0.62,0.44-1.01c-0.02-0.36-0.48-8.84-4.84-13.96c-3.02-3.55-6.34-5.59-9.11-5.59
		c-0.97,0-1.86,0.25-2.6,0.73c-9.69-6.58-20.51-10.06-32.26-10.4c-1.6-0.14-3.11-0.11-4.34,0.02h0c-1.55,0.06-3.11,0.16-4.68,0.32
		c-0.03,0.01-0.06,0.01-0.09,0.02c-0.04,0.01-0.08,0.02-0.12,0.03c-0.04,0.01-0.08,0.03-0.12,0.04c-0.04,0.01-0.07,0.03-0.11,0.05
		c-0.04,0.02-0.07,0.04-0.11,0.06c-0.03,0.02-0.06,0.04-0.09,0.06c-0.04,0.03-0.07,0.06-0.1,0.08c-0.03,0.03-0.05,0.05-0.08,0.08
		c-0.03,0.03-0.05,0.07-0.08,0.1c-0.02,0.03-0.04,0.06-0.06,0.09c-0.02,0.04-0.04,0.07-0.06,0.11c-0.02,0.04-0.03,0.07-0.04,0.11
		c-0.02,0.04-0.03,0.08-0.04,0.12c-0.01,0.04-0.02,0.07-0.02,0.11c-0.01,0.05-0.01,0.09-0.01,0.14c0,0.03-0.01,0.05-0.01,0.08
		c0.01,0.37,0.37,9.2,5.63,19.03c4.77,8.92,14.63,20.27,34.55,24.24c0.14,2.8,2.95,6,9.46,7.72c1.26,0.33,2.65,0.5,4.16,0.5
		c5.31,0,10.31-2.08,10.52-2.17c0.35-0.15,0.62-0.45,0.72-0.83C307.54,176.38,307.46,175.99,307.23,175.68"/>
	<path class="st0" d="M326.48,189.4c-0.35,3.54-2.74,7.07-4.19,8.92c-1.05-2.11-2.68-6.04-2.33-9.57c0.48-4.8,2.31-7.31,3.87-7.31
		c0.05,0,0.1,0,0.16,0.01c1.03,0.1,1.65,1.23,1.92,1.89C326.34,184.38,326.8,186.28,326.48,189.4 M301.56,204.39
		c-0.5,1.2-1.67,3.11-4.45,5.38c-3.24,2.65-8.21,3.55-10.82,3.85c0.81-2.49,2.68-7.19,5.92-9.84c2.65-2.16,5.29-3.4,7.25-3.4
		c0.92,0,1.61,0.27,2.04,0.8C302.31,202.15,301.88,203.61,301.56,204.39 M328.21,182.38c-0.76-1.84-2-3-3.5-3.33
		c-2.71-12.96-9.13-22.98-20.76-32.39c-0.53-0.43-1.32-0.35-1.75,0.18c-0.43,0.53-0.35,1.32,0.18,1.75
		c1.46,1.18,2.82,2.36,4.11,3.55c0.03,0.12,0.08,0.24,0.15,0.35c6.8,10.4,8.56,20.81,5.21,30.94c-2.51,7.6-7.37,13.02-9.81,15.04
		c-0.73-0.38-1.6-0.59-2.57-0.59c-2.56,0-5.7,1.41-8.82,3.96c-4.87,3.98-6.91,11.47-7.22,12.71c-0.05,0.14-0.08,0.29-0.08,0.45
		c0,0.69,0.56,1.24,1.24,1.24c0.01,0,0.01,0,0.01,0c0.01,0,0.02,0,0.04,0c0.36-0.01,8.85-0.3,14.06-4.55
		c2.51-2.05,4.3-4.25,5.17-6.35c0.81-1.95,0.8-3.74-0.01-5.14c2.86-2.44,7.75-8.1,10.36-15.99c2.68-8.13,2.24-16.66-1.23-25.07
		c4.67,5.98,7.6,12.45,9.23,20.13c-2.45,1.03-4.24,4.42-4.72,9.21c-0.6,5.96,3.36,12.4,3.52,12.67c0.21,0.33,0.55,0.54,0.93,0.58
		c0.04,0.01,0.08,0.01,0.12,0.01c0.34,0,0.67-0.14,0.9-0.39c0.22-0.23,5.38-5.75,5.98-11.71
		C329.24,186.77,328.99,184.26,328.21,182.38"/>
	<path class="st0" d="M254.21,173.02c-2.49-0.81-7.19-2.68-9.84-5.93c-3.67-4.49-4.09-8.07-2.6-9.29c0.37-0.3,0.85-0.46,1.41-0.46
		c2.01,0,4.69,1.82,7.18,4.86C253.01,165.44,253.91,170.41,254.21,173.02 M222.03,135.32c0.15-1.53,2.62-2.59,6-2.59
		c0.63,0,1.29,0.04,1.97,0.1c3.54,0.36,7.06,2.74,8.92,4.19c-1.91,0.95-5.31,2.38-8.56,2.38c-0.35,0-0.69-0.02-1.02-0.05
		C224.38,138.85,221.87,136.9,222.03,135.32 M256.83,174.68c-0.01-0.36-0.3-8.85-4.55-14.06c-3-3.67-6.31-5.77-9.11-5.77
		c-0.87,0-1.68,0.21-2.38,0.61c-2.44-2.86-8.09-7.75-15.99-10.36c-8.13-2.68-16.66-2.24-25.07,1.23c5.98-4.67,12.46-7.6,20.15-9.24
		c0.94,2.19,3.85,4.19,9.2,4.72c0.41,0.04,0.83,0.06,1.26,0.06c5.58,0,11.17-3.44,11.41-3.59c0.33-0.21,0.54-0.55,0.58-0.93
		c0.04-0.38-0.1-0.76-0.38-1.03c-0.23-0.22-5.75-5.38-11.71-5.98c-0.76-0.08-1.5-0.12-2.21-0.12c-4.66,0-7.81,1.66-8.39,4.37
		c-12.96,2.71-22.98,9.14-32.38,20.76c-0.43,0.53-0.35,1.32,0.18,1.75c0.23,0.19,0.51,0.28,0.78,0.28c0.36,0,0.72-0.16,0.97-0.46
		c1.18-1.46,2.36-2.82,3.55-4.11c0.12-0.03,0.24-0.08,0.35-0.15c10.4-6.8,20.81-8.56,30.94-5.21c7.6,2.51,13.03,7.37,15.04,9.82
		c-1.24,2.42-0.65,6.46,3.38,11.39c4.25,5.21,12.52,7.18,12.86,7.26c0.09,0.02,0.19,0.03,0.28,0.03c0.29,0,0.56-0.1,0.79-0.28
		C256.68,175.43,256.84,175.06,256.83,174.68"/>
	<path class="st0" d="M247.86,253.15"/>
	<path class="st1" d="M285.6,371.04l-1.8,0.46c-0.71,0.18-0.92,0.5-0.92,0.99c0,0.6,0.43,0.99,1.13,0.99h6.36
		c0.71,0,1.13-0.39,1.13-0.99c0-0.49-0.21-0.81-0.95-0.99l-1.77-0.46v-21.13c0-1.56-0.46-2.05-2.08-2.05c-0.92,0-2.12,0.18-2.9,0.35
		c-0.78,0.21-1.02,0.49-1.02,1.02c0,0.53,0.25,0.81,0.95,0.95l1.87,0.32V371.04z M269.53,363.05c0.35-3.04,2.01-5.02,4.45-5.02
		c2.16,0,3.82,1.63,3.89,5.02H269.53z M279.03,365c1.27,0,1.94-0.71,1.94-2.08c0-4.59-2.54-7.17-6.54-7.17
		c-4.63,0-8.23,3.6-8.23,9.44c0,5.55,3.11,8.66,8.27,8.66c2.83,0,4.81-0.81,5.41-1.41c0.25-0.25,0.39-0.53,0.39-0.85
		c0-0.53-0.32-0.85-0.85-0.85c-0.71,0-1.52,0.71-4.03,0.71c-3.64,0-5.87-2.22-5.97-6.43H279.03z M256.88,369.2
		c0,2.76,1.09,4.45,4.13,4.45c2.19,0,3.29-0.74,3.53-1.02c0.28-0.25,0.43-0.53,0.43-0.88c0-0.49-0.32-0.78-0.74-0.78
		c-0.46,0-0.99,0.32-2.05,0.32c-1.55,0-2.15-0.81-2.15-3.04v-9.93h3.39c0.92,0,1.41-0.5,1.41-1.27c0-0.64-0.35-0.95-1.17-0.95h-3.64
		v-3.68c0-0.67-0.35-1.03-1.06-1.03c-0.81,0-1.27,0.5-1.56,2.02l-0.53,2.68h-1.45c-0.92,0-1.41,0.49-1.41,1.24
		c0,0.67,0.35,0.99,1.17,0.99h1.7V369.2z M238.68,364.72c0-4.42,2.19-6.64,5.19-6.64s5.34,2.37,5.34,6.79
		c0,4.41-2.19,6.61-5.19,6.61S238.68,369.13,238.68,364.72 M235.39,365.17c0,5.51,3.15,8.66,8.16,8.66c5.26,0,8.94-3.75,8.94-9.44
		c0-5.51-3.14-8.66-8.16-8.66C239.14,355.74,235.39,359.48,235.39,365.17 M211.97,371l-2.08,0.49c-0.74,0.18-0.95,0.5-0.95,0.99
		c0,0.6,0.39,0.99,1.1,0.99h6.96c0.71,0,1.13-0.39,1.13-0.99c0-0.49-0.21-0.81-0.99-1.03l-1.91-0.46v-8.59h11.77V371l-1.91,0.46
		c-0.78,0.21-0.99,0.53-0.99,1.03c0,0.6,0.39,0.99,1.13,0.99h6.96c0.71,0,1.09-0.39,1.09-0.99c0-0.49-0.21-0.81-0.95-0.99
		l-2.09-0.49v-18.83l1.95-0.46c0.85-0.21,1.09-0.6,1.09-1.2c0-0.46-0.35-0.81-1.02-0.81h-7.14c-0.67,0-1.03,0.35-1.03,0.85
		c0,0.6,0.28,0.99,1.13,1.2l1.77,0.42v7.92h-11.77v-7.92l1.73-0.42c0.88-0.21,1.17-0.6,1.17-1.2c0-0.5-0.35-0.85-1.02-0.85h-7.14
		c-0.67,0-1.03,0.35-1.03,0.85c0,0.6,0.25,0.95,1.1,1.17l1.94,0.46V371z"/>
	<path class="st1" d="M351.96,329.84c-0.21-0.71-0.5-0.99-1.03-0.99c-0.53,0-0.88,0.28-0.95,0.99c-0.04,0.71-0.04,1.02-0.04,1.59
		v0.28c0,1.17,0.1,1.48,0.46,1.8c0.46,0.49,2.01,1.06,4.59,1.06c4.88,0,7.21-2.37,7.21-5.3c0-6.15-9.33-4.52-9.33-8.37
		c0-1.31,0.88-2.23,3.29-2.23c1.8,0,2.79,0.46,2.79,0.46l0.49,1.87c0.21,0.71,0.5,0.99,1.03,0.99c0.53,0,0.88-0.28,0.92-0.99
		c0.04-0.71,0.04-0.99,0.04-1.56v-0.25c0-1.13-0.07-1.48-0.43-1.8c-0.46-0.46-1.94-0.92-4.2-0.92c-4.73,0-7,2.26-7,4.95
		c0,5.97,9.36,4.31,9.36,8.38c0,1.56-1.03,2.58-3.53,2.58c-2.16,0-3.15-0.6-3.15-0.6L351.96,329.84z M319.03,331.78l-1.98,0.49
		c-0.74,0.18-0.95,0.46-0.95,0.95c0,0.6,0.39,0.99,1.13,0.99h6.4c0.74,0,1.13-0.39,1.13-0.99c0-0.49-0.21-0.81-0.95-1.03l-1.59-0.42
		v-10.67c0,0,1.52-2.19,4.1-2.19c2.61,0,4.13,1.52,4.13,5.12v7.74l-1.63,0.42c-0.71,0.21-0.92,0.53-0.92,1.03
		c0,0.6,0.39,0.99,1.13,0.99H335c0.74,0,1.13-0.39,1.13-0.99c0-0.49-0.21-0.81-0.92-1.03l-1.62-0.42v-8.59
		c0-1.34-0.18-1.87-0.18-1.87s1.63-2.4,4.31-2.4c2.58,0,4.1,1.52,4.1,5.12v7.74l-1.59,0.42c-0.74,0.21-0.95,0.53-0.95,1.03
		c0,0.6,0.39,0.99,1.13,0.99h6.18c0.71,0,1.13-0.39,1.13-0.99c0-0.49-0.21-0.81-0.95-0.99l-1.77-0.46v-8.59
		c0-4.42-2.3-6.68-6.26-6.68c-4.1,0-5.86,3.07-5.86,3.07c-0.95-2.01-2.83-3.07-5.51-3.07c-3.92,0-5.37,2.76-5.37,2.76l-0.07-0.03
		v-0.64c0-1.45-0.46-1.94-1.94-1.94c-0.95,0-2.16,0.18-2.97,0.35c-0.81,0.21-1.03,0.49-1.03,1.06c0,0.49,0.21,0.78,0.95,0.92
		l2.08,0.32V331.78z M306.03,331.78l-1.98,0.49c-0.74,0.18-0.95,0.46-0.95,0.95c0,0.6,0.39,0.99,1.13,0.99h6.96
		c0.74,0,1.17-0.39,1.17-0.99c0-0.49-0.21-0.78-0.95-0.95l-2.19-0.49v-10.07c0.99-1.45,2.16-2.05,3.25-2.05
		c0.67,0,0.88,0.35,1.45,0.35c0.64,0,1.38-0.81,1.38-2.12c0-0.88-0.49-1.48-1.62-1.48c-2.01,0-3.68,1.34-4.67,3.29l-0.07-0.04v-1.06
		c0-1.45-0.46-1.94-1.94-1.94c-0.95,0-2.16,0.18-2.97,0.35c-0.81,0.21-1.02,0.49-1.02,1.06c0,0.49,0.21,0.78,0.95,0.92l2.08,0.32
		V331.78z M286.1,325.1l2.9-7.92c0.71-1.94,1.2-3.67,1.2-3.67h0.07c0,0,0.49,1.69,1.2,3.67l2.86,7.92H286.1z M280.83,331.74
		l-1.27,0.42c-0.85,0.28-1.06,0.57-1.06,1.06c0,0.6,0.39,0.99,1.13,0.99h5.66c0.74,0,1.17-0.39,1.17-0.99c0-0.49-0.25-0.78-1.2-1.06
		l-1.52-0.42l1.62-4.45h9.75l1.63,4.45l-1.52,0.42c-0.95,0.28-1.2,0.57-1.2,1.06c0,0.6,0.43,0.99,1.13,0.99h6.22
		c0.74,0,1.13-0.39,1.13-0.99c0-0.49-0.21-0.78-1.06-1.06l-1.27-0.42l-7.28-19.47c-0.6-1.59-1.2-1.98-2.37-1.98
		c-1.2,0-1.8,0.39-2.4,1.98L280.83,331.74z M251.93,331.78l-1.8,0.46c-0.71,0.18-0.92,0.5-0.92,0.99c0,0.6,0.43,0.99,1.13,0.99h6.32
		c0.74,0,1.13-0.39,1.13-0.99c0-0.49-0.21-0.81-0.92-0.99l-1.77-0.46v-10.67c0,0,1.52-2.19,4.28-2.19c2.72,0,4.28,1.52,4.28,5.12
		v7.74l-1.77,0.46c-0.74,0.18-0.95,0.5-0.95,0.99c0,0.6,0.39,0.99,1.13,0.99h6.32c0.74,0,1.13-0.39,1.13-0.99
		c0-0.49-0.21-0.81-0.95-0.99l-1.77-0.46v-8.59c0-4.42-2.3-6.68-6.4-6.68c-3.96,0-5.44,2.65-5.44,2.65l-0.07-0.04
		c0.11-0.71,0.21-1.59,0.21-2.47v-6.01c0-1.56-0.46-2.05-2.08-2.05c-0.92,0-2.12,0.18-2.9,0.35c-0.78,0.21-1.03,0.49-1.03,1.02
		c0,0.53,0.25,0.81,0.95,0.95l1.87,0.32V331.78z M236.24,322.45c0-2.26,1.41-3.64,3.68-3.64c2.33,0,3.78,1.48,3.78,3.75
		s-1.41,3.64-3.68,3.64C237.72,326.2,236.24,324.71,236.24,322.45 M241.12,334.15c2.93,0,3.92,0.95,3.92,2.65
		c0,1.94-1.66,3.6-5.19,3.6c-3.43,0-4.8-1.41-4.8-3.43c0-1.98,1.48-3.22,1.48-3.22s0.95,0.39,2.9,0.39H241.12z M240.06,331.74
		c-3.04,0-3.82-0.78-3.82-1.94c0-1.06,0.71-1.66,0.71-1.66s1.1,0.35,2.62,0.35c4.63,0,7.35-2.72,7.35-6.4c0-1.91-0.81-3.29-1.8-4.1
		c1.7-1.59,3.11-1.8,3.11-2.97c0.04-0.71-0.57-1.24-1.34-1.24c-1.1,0-2.19,1.27-3.53,3.22c0,0-1.06-0.5-2.93-0.5
		c-4.63,0-7.35,2.72-7.35,6.4c0,2.08,1.02,3.68,2.33,4.49c-0.32,0.21-1.87,1.34-1.87,3.18c0,1.17,0.6,1.98,1.27,2.47
		c-0.39,0.21-2.9,1.7-2.9,4.67c0,2.76,2.22,4.98,7.38,4.98c5.83,0,8.94-3.15,8.94-6.36c0-2.72-1.8-4.59-6.4-4.59H240.06z
		 M213.2,328.17c0,4.17,2.26,6.36,6.22,6.36c4.1,0,5.55-2.76,5.55-2.76l0.07,0.04v0.67c0,1.31,0.56,1.91,1.94,1.91
		c0.99,0,2.05-0.21,2.76-0.42s1.02-0.49,1.02-1.06c0-0.53-0.25-0.78-0.99-0.88l-1.84-0.21V318.7c0-1.52-0.46-2.05-2.05-2.05
		c-1.17,0-2.33,0.18-3.15,0.35c-0.81,0.21-1.02,0.49-1.02,1.06c0,0.49,0.21,0.78,0.95,0.92l2.12,0.32v10.64c0,0-1.56,2.19-4.31,2.19
		c-2.62,0-4.14-1.45-4.14-4.8v-8.62c0-1.52-0.46-2.05-2.05-2.05c-0.85,0-2.12,0.18-2.9,0.35c-0.81,0.21-1.02,0.49-1.02,1.06
		c0,0.49,0.21,0.78,0.95,0.92l1.87,0.32V328.17z M195,325.45c0-4.42,2.19-6.64,5.19-6.64c3,0,5.34,2.37,5.34,6.79
		c0,4.41-2.19,6.61-5.19,6.61S195,329.87,195,325.45 M191.72,325.91c0,5.51,3.15,8.66,8.16,8.66c5.26,0,8.94-3.75,8.94-9.44
		c0-5.51-3.15-8.66-8.16-8.66C195.47,316.48,191.72,320.22,191.72,325.91 M181.58,331.78l-1.98,0.49c-0.74,0.18-0.95,0.46-0.95,0.95
		c0,0.6,0.39,0.99,1.13,0.99h6.96c0.74,0,1.17-0.39,1.17-0.99c0-0.49-0.21-0.78-0.95-0.95l-2.19-0.49v-10.07
		c0.99-1.45,2.16-2.05,3.25-2.05c0.67,0,0.88,0.35,1.45,0.35c0.64,0,1.38-0.81,1.38-2.12c0-0.88-0.49-1.48-1.62-1.48
		c-2.02,0-3.68,1.34-4.67,3.29l-0.07-0.04v-1.06c0-1.45-0.46-1.94-1.94-1.94c-0.95,0-2.16,0.18-2.97,0.35
		c-0.81,0.21-1.02,0.49-1.02,1.06c0,0.49,0.21,0.78,0.95,0.92l2.08,0.32V331.78z M162.85,325.45c0-4.42,2.19-6.64,5.19-6.64
		c3,0,5.34,2.37,5.34,6.79c0,4.41-2.19,6.61-5.19,6.61C165.18,332.2,162.85,329.87,162.85,325.45 M159.56,325.91
		c0,5.51,3.15,8.66,8.16,8.66c5.26,0,8.94-3.75,8.94-9.44c0-5.51-3.14-8.66-8.16-8.66C163.31,316.48,159.56,320.22,159.56,325.91
		 M144.48,320.82v-8.05h2.58c3.96,0,5.44,1.45,5.44,3.99c0,2.47-1.59,4.06-5.44,4.06H144.48z M144.48,331.88v-8.87h2.9
		c4.49,0,6.08,1.63,6.08,4.38c0,2.79-1.7,4.49-6.04,4.49H144.48z M141.26,331.74l-2.08,0.49c-0.74,0.18-0.95,0.5-0.95,0.99
		c0,0.6,0.39,0.99,1.13,0.99h7.6c6.71,0,9.93-3.22,9.93-7.24c0-3-1.94-5.05-5.23-5.48v-0.04c2.62-0.71,4.21-2.54,4.21-5.3
		c0-3.39-2.33-5.72-8.34-5.72h-8.27c-0.67,0-1.03,0.35-1.03,0.85c0,0.6,0.25,0.95,1.1,1.17l1.94,0.46V331.74z"/>
	<path class="st1" d="M259.49,214.05l4.48-12.24c1.09-3.01,1.86-5.68,1.86-5.68h0.11c0,0,0.77,2.62,1.86,5.68l4.43,12.24H259.49z
		 M251.35,224.33l-1.97,0.66c-1.31,0.44-1.64,0.87-1.64,1.64c0,0.93,0.6,1.53,1.75,1.53h8.75c1.15,0,1.8-0.6,1.8-1.53
		c0-0.76-0.38-1.2-1.86-1.64l-2.35-0.66l2.52-6.89h15.09l2.52,6.89l-2.35,0.66c-1.48,0.44-1.86,0.87-1.86,1.64
		c0,0.93,0.66,1.53,1.75,1.53h9.62c1.15,0,1.75-0.6,1.75-1.53c0-0.76-0.33-1.2-1.64-1.64l-1.97-0.66l-11.26-30.12
		c-0.93-2.46-1.86-3.06-3.66-3.06c-1.86,0-2.79,0.6-3.72,3.06L251.35,224.33z M228.17,207.44v-12.46h3.99
		c6.12,0,8.42,2.24,8.42,6.18c0,3.83-2.46,6.29-8.42,6.29H228.17z M228.17,224.54v-13.72h4.48c6.94,0,9.4,2.51,9.4,6.78
		c0,4.32-2.62,6.94-9.35,6.94H228.17z M223.2,224.33l-3.22,0.76c-1.15,0.27-1.48,0.76-1.48,1.53c0,0.93,0.6,1.53,1.75,1.53H232
		c10.39,0,15.36-4.97,15.36-11.21c0-4.65-3.01-7.82-8.09-8.47v-0.06c4.04-1.09,6.5-3.94,6.5-8.2c0-5.25-3.61-8.86-12.9-8.86h-12.79
		c-1.04,0-1.59,0.55-1.59,1.31c0,0.93,0.38,1.48,1.69,1.8l3.01,0.71V224.33z"/>
</g>
</svg>
