<?xml version="1.0" encoding="utf-8"?>
<!-- Generator: Adobe Illustrator 23.0.3, SVG Export Plug-In . SVG Version: 6.00 Build 0)  -->
<svg version="1.1" id="Layer_1" xmlns="http://www.w3.org/2000/svg" xmlns:xlink="http://www.w3.org/1999/xlink" x="0px" y="0px"
	 viewBox="0 0 300 300" style="enable-background:new 0 0 300 300;" xml:space="preserve">
<style type="text/css">
	.st0{clip-path:url(#SVGID_2_);fill:#FFFFFF;}
</style>
<g>
	<defs>
		<rect id="SVGID_1_" x="124.7" y="129.4" width="50.6" height="41.1"/>
	</defs>
	<clipPath id="SVGID_2_">
		<use xlink:href="#SVGID_1_"  style="overflow:visible;"/>
	</clipPath>
	<path class="st0" d="M150,165.8c-7,0-12.7-5.7-12.7-12.7c0-7,5.7-12.7,12.7-12.7s12.7,5.7,12.7,12.7
		C162.7,160.1,157,165.8,150,165.8 M169,135.8h-6.5l-1.3-2.7c-1.1-2.2-3.3-3.6-5.7-3.6h-10.9c-2.4,0-4.6,1.4-5.7,3.6l-1.3,2.7H131
		c-3.5,0-6.3,2.8-6.3,6.3v22.1c0,3.5,2.8,6.3,6.3,6.3H169c3.5,0,6.3-2.8,6.3-6.3v-22.1C175.3,138.6,172.5,135.8,169,135.8"/>
	<path class="st0" d="M150,144.9c-4.5,0-8.2,3.7-8.2,8.2c0,4.5,3.7,8.2,8.2,8.2s8.2-3.7,8.2-8.2C158.2,148.6,154.5,144.9,150,144.9"
		/>
</g>
</svg>
