<?xml version="1.0" encoding="utf-8"?>
<!-- Generator: Adobe Illustrator 23.0.3, SVG Export Plug-In . SVG Version: 6.00 Build 0)  -->
<svg version="1.1" id="Layer_1" xmlns="http://www.w3.org/2000/svg" xmlns:xlink="http://www.w3.org/1999/xlink" x="0px" y="0px"
	 viewBox="0 0 300 300" style="enable-background:new 0 0 300 300;" xml:space="preserve">
<style type="text/css">
	.st0{clip-path:url(#SVGID_2_);fill:#7A8792;}
</style>
<g>
	<defs>
		<rect id="SVGID_1_" x="102.1" y="96.2" width="95.8" height="107.7"/>
	</defs>
	<clipPath id="SVGID_2_">
		<use xlink:href="#SVGID_1_"  style="overflow:visible;"/>
	</clipPath>
	<path class="st0" d="M105.7,132h35.9v16.2h-35.9V132z M122.2,115.1c-2.7-2.6-4-5.1-3.9-7.2c0.1-1.7,1-3.4,2.9-5.3
		c2-2,3.7-2.9,5.5-2.9c2.1,0,4.4,1.3,7,3.9c2.9,2.9,7.3,8.2,10.5,13.8c3.9,6.6,3.8,9.4,3.2,10c-0.2,0.2-0.8,0.4-1.5,0.4
		c-2.6,0-6.9-1.6-11.9-4.3C129.4,120.9,124.9,117.7,122.2,115.1 M155.8,117.4c3.3-5.5,7.6-10.9,10.5-13.8c2.6-2.6,4.9-3.9,7-3.9
		c1.8,0,3.5,0.9,5.5,2.9c1.9,1.9,2.8,3.6,2.9,5.3c0.1,2.1-1.3,4.5-3.9,7.2c-2.6,2.6-7.1,5.8-11.8,8.3c-5,2.7-9.3,4.3-11.9,4.3
		c-0.7,0-1.3-0.1-1.5-0.4C152,126.8,151.9,123.9,155.8,117.4 M194.3,148.3h-35.9V132h35.9V148.3z M187.8,200.3h-29.3v-48.4h29.3
		V200.3z M154.9,148.3h-9.8V132h9.8V148.3z M145.1,151.8h9.8v48.4h-9.8V151.8z M112.2,151.8h29.3v48.4h-29.3V151.8z M102.1,130.3
		v19.8c0,1,0.8,1.8,1.8,1.8h4.8v50.2c0,1,0.8,1.8,1.8,1.8h32.9h13.3h32.9c1,0,1.8-0.8,1.8-1.8v-50.2h4.8c1,0,1.8-0.8,1.8-1.8v-19.8
		c0-1-0.8-1.8-1.8-1.8H164c1.4-0.7,2.7-1.3,3.7-1.9c5-2.7,9.7-6.1,12.6-8.9c3.5-3.4,5.1-6.6,5-9.8c-0.1-2.6-1.4-5.1-3.9-7.7
		c-2.7-2.7-5.3-4-8-4c-3.1,0-6.2,1.6-9.5,4.9c-3.7,3.6-8.1,9.5-11.1,14.5c-1.1,2-2.1,3.7-2.7,5.4c-0.7-1.6-1.6-3.4-2.7-5.4
		c-3-5-7.4-10.9-11.1-14.5c-3.3-3.3-6.4-4.9-9.5-4.9c-2.7,0-5.4,1.3-8,4c-2.5,2.6-3.8,5.1-3.9,7.7c-0.1,3.2,1.5,6.4,5,9.8
		c2.9,2.9,7.6,6.2,12.6,8.9c1,0.5,2.3,1.2,3.7,1.9h-32.1C102.9,128.5,102.1,129.3,102.1,130.3"/>
</g>
</svg>
