<?xml version="1.0" encoding="utf-8"?>
<!-- Generator: Adobe Illustrator 23.0.3, SVG Export Plug-In . SVG Version: 6.00 Build 0)  -->
<svg version="1.1" id="Layer_1" xmlns="http://www.w3.org/2000/svg" xmlns:xlink="http://www.w3.org/1999/xlink" x="0px" y="0px"
	 viewBox="0 0 300 300" style="enable-background:new 0 0 300 300;" xml:space="preserve">
<style type="text/css">
	.st0{clip-path:url(#SVGID_2_);fill:#3F5364;}
</style>
<g>
	<defs>
		<rect id="SVGID_1_" x="123.7" y="112.1" width="52.6" height="75.8"/>
	</defs>
	<clipPath id="SVGID_2_">
		<use xlink:href="#SVGID_1_"  style="overflow:visible;"/>
	</clipPath>
	<path class="st0" d="M153.1,180c-1.2,1.6-2.2,3-3.1,4.2c-0.9-1.2-1.9-2.6-3.1-4.2c-7.6-10.3-20.4-27.5-20.1-41.6v0
		c0-6.2,2.4-12,6.8-16.4c4.4-4.4,10.2-6.8,16.4-6.8c12.8,0,23.2,10.4,23.2,23.2v0C173.5,152.5,160.7,169.7,153.1,180 M176.3,138.4
		c0-14.5-11.8-26.3-26.3-26.3c-7,0-13.6,2.7-18.6,7.7c-5,5-7.7,11.6-7.7,18.6c-0.3,15.1,12.8,32.9,20.7,43.5c1.5,2,2.7,3.7,3.7,5.1
		c0.4,0.6,1.1,1,1.8,1c0.7,0,1.4-0.4,1.8-1c1-1.5,2.3-3.2,3.7-5.1C163.4,171.2,176.6,153.5,176.3,138.4"/>
	<path class="st0" d="M150,150.4c-6.9,0-12.6-5.7-12.6-12.6c0-6.9,5.6-12.6,12.6-12.6c6.9,0,12.6,5.7,12.6,12.6
		C162.6,144.8,156.9,150.4,150,150.4 M150,122.1c-8.6,0-15.7,7-15.7,15.7c0,8.6,7,15.7,15.7,15.7s15.7-7,15.7-15.7
		C165.7,129.2,158.6,122.1,150,122.1"/>
</g>
</svg>
