<?xml version="1.0" encoding="utf-8"?>
<!-- Generator: Adobe Illustrator 23.0.3, SVG Export Plug-In . SVG Version: 6.00 Build 0)  -->
<svg version="1.1" id="Layer_1" xmlns="http://www.w3.org/2000/svg" xmlns:xlink="http://www.w3.org/1999/xlink" x="0px" y="0px"
	 viewBox="0 0 300 300" style="enable-background:new 0 0 300 300;" xml:space="preserve">
<style type="text/css">
	.st0{clip-path:url(#SVGID_2_);fill:#FFFFFF;}
</style>
<g>
	<defs>
		<rect id="SVGID_1_" x="143" y="143.01" width="13.87" height="13.99"/>
	</defs>
	<clipPath id="SVGID_2_">
		<use xlink:href="#SVGID_1_"  style="overflow:visible;"/>
	</clipPath>
	<path class="st0" d="M198.36,174.27c-0.67-1.52-1.81-3.11-3.73-3.73c-4.11-1.34-20.55-6.08-20.55-6.08s-4.42-1.34-7.33,1.47
		l-6.13,5.92c-0.01,0.01-0.01,0.01-0.02,0.02c-0.18,0.14-2.35,1.8-4.77,0.54c-1.58-0.83-8.97-6.52-16.16-13.73
		c-6.4-6.81-11.28-13.41-12.02-14.9c-1.22-2.43,0.48-4.57,0.63-4.75c0-0.01,0.01-0.01,0.01-0.02l6.03-6.02
		c2.86-2.86,1.59-7.31,1.59-7.31s-4.45-16.52-5.72-20.65c-0.6-1.93-2.17-3.11-3.67-3.8c-1.43-0.66-2.99-0.97-4.57-0.97h-2.88
		c-2.66,0-4.45,0.95-4.45,0.95c-0.5,0.29-9.91,5.56-12.07,11.44c-2.23,6.03-1.91,11.44-1.91,11.44c0,12.07,5.4,22.87,5.4,22.87
		c5.85,11.33,13.54,20.61,20.93,27.8c6.74,6.82,15.17,13.76,25.31,19.2c0,0,10.7,5.59,22.78,5.8c0,0,5.4,0.41,11.47-1.71
		c5.91-2.06,11.34-11.37,11.64-11.87c0,0,0.98-1.77,1.03-4.43l0.05-2.88C199.27,177.27,198.99,175.7,198.36,174.27"/>
</g>
</svg>
