<?xml version="1.0" encoding="utf-8"?>
<!-- Generator: Adobe Illustrator 23.0.3, SVG Export Plug-In . SVG Version: 6.00 Build 0)  -->
<svg version="1.1" id="Layer_1" xmlns="http://www.w3.org/2000/svg" xmlns:xlink="http://www.w3.org/1999/xlink" x="0px" y="0px"
	 viewBox="0 0 300 300" style="enable-background:new 0 0 300 300;" xml:space="preserve">
<style type="text/css">
	.st0{clip-path:url(#SVGID_2_);fill:#7A8792;}
	.st1{clip-path:url(#SVGID_4_);fill:#CAA0A6;}
	.st2{clip-path:url(#SVGID_4_);fill:#FFFFFF;}
</style>
<g>
	<defs>
		<rect id="SVGID_1_" x="-186.7" y="68.2" width="95.8" height="107.7"/>
	</defs>
	<clipPath id="SVGID_2_">
		<use xlink:href="#SVGID_1_"  style="overflow:visible;"/>
	</clipPath>
	<path class="st0" d="M-183.2,104.1h35.9v16.2h-35.9V104.1z M-166.6,87.2c-2.7-2.6-4-5.1-3.9-7.2c0.1-1.7,1-3.4,2.9-5.3
		c2-2,3.7-2.9,5.5-2.9c2.1,0,4.4,1.3,7,3.9c2.9,2.9,7.3,8.2,10.5,13.8c3.9,6.6,3.8,9.4,3.2,10c-0.2,0.2-0.8,0.4-1.5,0.4
		c-2.6,0-6.9-1.6-11.9-4.3C-159.5,93-164,89.8-166.6,87.2 M-133,89.4c3.3-5.5,7.6-10.9,10.5-13.8c2.6-2.6,4.9-3.9,7-3.9
		c1.8,0,3.5,0.9,5.5,2.9c1.9,1.9,2.8,3.6,2.9,5.3c0.1,2.1-1.3,4.5-3.9,7.2c-2.6,2.6-7.1,5.8-11.8,8.3c-5,2.7-9.3,4.3-11.9,4.3
		c-0.7,0-1.3-0.1-1.5-0.4C-136.8,98.8-136.9,96-133,89.4 M-94.5,120.3h-35.9v-16.2h35.9V120.3z M-101.1,172.3h-29.3v-48.4h29.3
		V172.3z M-133.9,120.3h-9.8v-16.2h9.8V120.3z M-143.7,123.9h9.8v48.4h-9.8V123.9z M-176.6,123.9h29.3v48.4h-29.3V123.9z
		 M-186.7,102.3v19.8c0,1,0.8,1.8,1.8,1.8h4.8v50.2c0,1,0.8,1.8,1.8,1.8h32.9h13.3h32.9c1,0,1.8-0.8,1.8-1.8v-50.2h4.8
		c1,0,1.8-0.8,1.8-1.8v-19.8c0-1-0.8-1.8-1.8-1.8h-32.1c1.4-0.7,2.7-1.3,3.7-1.9c5-2.7,9.7-6.1,12.6-8.9c3.5-3.4,5.1-6.6,5-9.8
		c-0.1-2.6-1.4-5.1-3.9-7.7c-2.7-2.7-5.3-4-8-4c-3.1,0-6.2,1.6-9.5,4.9c-3.7,3.6-8.1,9.5-11.1,14.5c-1.1,2-2.1,3.7-2.7,5.4
		c-0.7-1.6-1.6-3.4-2.7-5.4c-3-5-7.4-10.9-11.1-14.5c-3.3-3.3-6.4-4.9-9.5-4.9c-2.7,0-5.4,1.3-8,4c-2.5,2.6-3.8,5.1-3.9,7.7
		c-0.1,3.2,1.5,6.4,5,9.8c2.9,2.9,7.6,6.2,12.6,8.9c1,0.5,2.3,1.2,3.7,1.9h-32.1C-185.9,100.5-186.7,101.3-186.7,102.3"/>
</g>
<g>
	<defs>
		<rect id="SVGID_3_" x="95.6" y="140.7" width="105.1" height="17.6"/>
	</defs>
	<clipPath id="SVGID_4_">
		<use xlink:href="#SVGID_3_"  style="overflow:visible;"/>
	</clipPath>
	<path class="st1" d="M104.4,158.3c4.9,0,8.8-3.9,8.8-8.8s-3.9-8.8-8.8-8.8s-8.8,3.9-8.8,8.8S99.5,158.3,104.4,158.3"/>
	<path class="st2" d="M133.5,158.3c4.9,0,8.8-3.9,8.8-8.8s-3.9-8.8-8.8-8.8s-8.8,3.9-8.8,8.8S128.7,158.3,133.5,158.3"/>
	<path class="st2" d="M162.7,158.3c4.9,0,8.8-3.9,8.8-8.8s-3.9-8.8-8.8-8.8s-8.8,3.9-8.8,8.8S157.8,158.3,162.7,158.3"/>
	<path class="st2" d="M191.8,158.3c4.9,0,8.8-3.9,8.8-8.8s-3.9-8.8-8.8-8.8s-8.8,3.9-8.8,8.8S187,158.3,191.8,158.3"/>
</g>
</svg>
